HIERARCHY
ROOT Hips
{
  OFFSET -23.7062 93.0159 42.4327
  CHANNELS 6 Xposition Yposition Zposition Zrotation Xrotation Yrotation
  JOINT Spine
  {
    OFFSET 0 8 0
    CHANNELS 6 Xposition Yposition Zposition Zrotation Xrotation Yrotation
    JOINT Spine1
    {
      OFFSET 0 8 0
      CHANNELS 6 Xposition Yposition Zposition Zrotation Xrotation Yrotation
      JOINT Spine2
      {
        OFFSET 0 8 0
        CHANNELS 6 Xposition Yposition Zposition Zrotation Xrotation Yrotation
        JOINT Spine3
        {
          OFFSET 0 8 0
          CHANNELS 6 Xposition Yposition Zposition Zrotation Xrotation Yrotation
          JOINT Neck
          {
            OFFSET 0 17 0
            CHANNELS 6 Xposition Yposition Zposition Zrotation Xrotation Yrotation
            JOINT Head
            {
              OFFSET 0 10.8 0
              CHANNELS 6 Xposition Yposition Zposition Zrotation Xrotation Yrotation
              End Site
              {
                OFFSET 0 20.25 0
              }
            }
          }
          JOINT LeftShoulder
          {
            OFFSET 5 17 0
            CHANNELS 6 Xposition Yposition Zposition Zrotation Xrotation Yrotation
            JOINT LeftShoulder2
            {
              OFFSET 6.45 0 0
              CHANNELS 6 Xposition Yposition Zposition Zrotation Xrotation Yrotation
              JOINT LeftArm
              {
                OFFSET 6.45 0 0
                CHANNELS 6 Xposition Yposition Zposition Zrotation Xrotation Yrotation
                JOINT LeftForeArm
                {
                  OFFSET 0 -32.4 -2
                  CHANNELS 6 Xposition Yposition Zposition Zrotation Xrotation Yrotation
                  JOINT LeftHand
                  {
                    OFFSET 0 -25.65 2
                    CHANNELS 6 Xposition Yposition Zposition Zrotation Xrotation Yrotation
                    JOINT LeftHandThumb1
                    {
                      OFFSET -0.5 -1.5 2.65
                      CHANNELS 6 Xposition Yposition Zposition Zrotation Xrotation Yrotation
                      JOINT LeftHandThumb2
                      {
                        OFFSET 0 -3.8 3.7
                        CHANNELS 6 Xposition Yposition Zposition Zrotation Xrotation Yrotation
                        JOINT LeftHandThumb3
                        {
                          OFFSET 0 -3 2.7
                          CHANNELS 6 Xposition Yposition Zposition Zrotation Xrotation Yrotation
                          End Site
                          {
                            OFFSET 0 -2.3 1.8
                          }
                        }
                      }
                    }
                    JOINT LeftHandIndex
                    {
                      OFFSET 0 -1.9 1.6
                      CHANNELS 6 Xposition Yposition Zposition Zrotation Xrotation Yrotation
                      JOINT LeftHandIndex1
                      {
                        OFFSET 0 -8.3 1.9
                        CHANNELS 6 Xposition Yposition Zposition Zrotation Xrotation Yrotation
                        JOINT LeftHandIndex2
                        {
                          OFFSET 0 -4.5 0
                          CHANNELS 6 Xposition Yposition Zposition Zrotation Xrotation Yrotation
                          JOINT LeftHandIndex3
                          {
                            OFFSET 0 -3.4 0
                            CHANNELS 6 Xposition Yposition Zposition Zrotation Xrotation Yrotation
                            End Site
                            {
                              OFFSET 0 -2.6 0
                            }
                          }
                        }
                      }
                    }
                    JOINT LeftHandMiddle
                    {
                      OFFSET -0.25 -2.2 0.4
                      CHANNELS 6 Xposition Yposition Zposition Zrotation Xrotation Yrotation
                      JOINT LeftHandMiddle1
                      {
                        OFFSET 0 -8.3 1
                        CHANNELS 6 Xposition Yposition Zposition Zrotation Xrotation Yrotation
                        JOINT LeftHandMiddle2
                        {
                          OFFSET 0 -4.65 0
                          CHANNELS 6 Xposition Yposition Zposition Zrotation Xrotation Yrotation
                          JOINT LeftHandMiddle3
                          {
                            OFFSET 0 -3.3 0
                            CHANNELS 6 Xposition Yposition Zposition Zrotation Xrotation Yrotation
                            End Site
                            {
                              OFFSET 0 -2.7 0
                            }
                          }
                        }
                      }
                    }
                    JOINT LeftHandRing
                    {
                      OFFSET -0.5 -2.15 -0.8
                      CHANNELS 6 Xposition Yposition Zposition Zrotation Xrotation Yrotation
                      JOINT LeftHandRing1
                      {
                        OFFSET 0 -7.75 -0.2
                        CHANNELS 6 Xposition Yposition Zposition Zrotation Xrotation Yrotation
                        JOINT LeftHandRing2
                        {
                          OFFSET 0 -3.8 0
                          CHANNELS 6 Xposition Yposition Zposition Zrotation Xrotation Yrotation
                          JOINT LeftHandRing3
                          {
                            OFFSET 0 -3.4 0
                            CHANNELS 6 Xposition Yposition Zposition Zrotation Xrotation Yrotation
                            End Site
                            {
                              OFFSET 0 -2.6 0
                            }
                          }
                        }
                      }
                    }
                    JOINT LeftHandPinky
                    {
                      OFFSET -0.75 -1.75 -1.85
                      CHANNELS 6 Xposition Yposition Zposition Zrotation Xrotation Yrotation
                      JOINT LeftHandPinky1
                      {
                        OFFSET 0 -7.15 -1
                        CHANNELS 6 Xposition Yposition Zposition Zrotation Xrotation Yrotation
                        JOINT LeftHandPinky2
                        {
                          OFFSET 0 -3 0
                          CHANNELS 6 Xposition Yposition Zposition Zrotation Xrotation Yrotation
                          JOINT LeftHandPinky3
                          {
                            OFFSET 0 -2.35 0
                            CHANNELS 6 Xposition Yposition Zposition Zrotation Xrotation Yrotation
                            End Site
                            {
                              OFFSET 0 -2.1 0
                            }
                          }
                        }
                      }
                    }
                  }
                }
              }
            }
          }
          JOINT RightShoulder
          {
            OFFSET -5 17 0
            CHANNELS 6 Xposition Yposition Zposition Zrotation Xrotation Yrotation
            JOINT RightShoulder2
            {
              OFFSET -6.45 0 0
              CHANNELS 6 Xposition Yposition Zposition Zrotation Xrotation Yrotation
              JOINT RightArm
              {
                OFFSET -6.45 0 0
                CHANNELS 6 Xposition Yposition Zposition Zrotation Xrotation Yrotation
                JOINT RightForeArm
                {
                  OFFSET 0 -32.4 -2
                  CHANNELS 6 Xposition Yposition Zposition Zrotation Xrotation Yrotation
                  JOINT RightHand
                  {
                    OFFSET 0 -25.65 2
                    CHANNELS 6 Xposition Yposition Zposition Zrotation Xrotation Yrotation
                    JOINT RightHandThumb1
                    {
                      OFFSET 0.5 -1.5 2.65
                      CHANNELS 6 Xposition Yposition Zposition Zrotation Xrotation Yrotation
                      JOINT RightHandThumb2
                      {
                        OFFSET 0 -3.8 3.7
                        CHANNELS 6 Xposition Yposition Zposition Zrotation Xrotation Yrotation
                        JOINT RightHandThumb3
                        {
                          OFFSET 0 -3 2.7
                          CHANNELS 6 Xposition Yposition Zposition Zrotation Xrotation Yrotation
                          End Site
                          {
                            OFFSET 0 -2.3 1.8
                          }
                        }
                      }
                    }
                    JOINT RightHandIndex
                    {
                      OFFSET 0 -1.9 1.6
                      CHANNELS 6 Xposition Yposition Zposition Zrotation Xrotation Yrotation
                      JOINT RightHandIndex1
                      {
                        OFFSET 0 -8.3 1.9
                        CHANNELS 6 Xposition Yposition Zposition Zrotation Xrotation Yrotation
                        JOINT RightHandIndex2
                        {
                          OFFSET 0 -4.5 0
                          CHANNELS 6 Xposition Yposition Zposition Zrotation Xrotation Yrotation
                          JOINT RightHandIndex3
                          {
                            OFFSET 0 -3.4 0
                            CHANNELS 6 Xposition Yposition Zposition Zrotation Xrotation Yrotation
                            End Site
                            {
                              OFFSET 0 -2.6 0
                            }
                          }
                        }
                      }
                    }
                    JOINT RightHandMiddle
                    {
                      OFFSET 0.25 -2.2 0.4
                      CHANNELS 6 Xposition Yposition Zposition Zrotation Xrotation Yrotation
                      JOINT RightHandMiddle1
                      {
                        OFFSET 0 -8.3 1
                        CHANNELS 6 Xposition Yposition Zposition Zrotation Xrotation Yrotation
                        JOINT RightHandMiddle2
                        {
                          OFFSET 0 -4.65 0
                          CHANNELS 6 Xposition Yposition Zposition Zrotation Xrotation Yrotation
                          JOINT RightHandMiddle3
                          {
                            OFFSET 0 -3.3 0
                            CHANNELS 6 Xposition Yposition Zposition Zrotation Xrotation Yrotation
                            End Site
                            {
                              OFFSET 0 -2.7 0
                            }
                          }
                        }
                      }
                    }
                    JOINT RightHandRing
                    {
                      OFFSET 0.5 -2.15 -0.8
                      CHANNELS 6 Xposition Yposition Zposition Zrotation Xrotation Yrotation
                      JOINT RightHandRing1
                      {
                        OFFSET 0 -7.75 -0.2
                        CHANNELS 6 Xposition Yposition Zposition Zrotation Xrotation Yrotation
                        JOINT RightHandRing2
                        {
                          OFFSET 0 -3.8 0
                          CHANNELS 6 Xposition Yposition Zposition Zrotation Xrotation Yrotation
                          JOINT RightHandRing3
                          {
                            OFFSET 0 -3.4 0
                            CHANNELS 6 Xposition Yposition Zposition Zrotation Xrotation Yrotation
                            End Site
                            {
                              OFFSET 0 -2.6 0
                            }
                          }
                        }
                      }
                    }
                    JOINT RightHandPinky
                    {
                      OFFSET 0.75 -1.75 -1.85
                      CHANNELS 6 Xposition Yposition Zposition Zrotation Xrotation Yrotation
                      JOINT RightHandPinky1
                      {
                        OFFSET 0 -7.15 -1
                        CHANNELS 6 Xposition Yposition Zposition Zrotation Xrotation Yrotation
                        JOINT RightHandPinky2
                        {
                          OFFSET 0 -3 0
                          CHANNELS 6 Xposition Yposition Zposition Zrotation Xrotation Yrotation
                          JOINT RightHandPinky3
                          {
                            OFFSET 0 -2.35 0
                            CHANNELS 6 Xposition Yposition Zposition Zrotation Xrotation Yrotation
                            End Site
                            {
                              OFFSET 0 -2.1 0
                            }
                          }
                        }
                      }
                    }
                  }
                }
              }
            }
          }
        }
      }
    }
  }
  JOINT LeftUpLeg
  {
    OFFSET 8 0 0
    CHANNELS 6 Xposition Yposition Zposition Zrotation Xrotation Yrotation
    JOINT LeftLeg
    {
      OFFSET 0 -45 -1
      CHANNELS 6 Xposition Yposition Zposition Zrotation Xrotation Yrotation
      JOINT LeftFoot
      {
        OFFSET 0 -41 -2
        CHANNELS 6 Xposition Yposition Zposition Zrotation Xrotation Yrotation
        JOINT LeftToeBase
        {
          OFFSET 0 -7.5 12.5
          CHANNELS 6 Xposition Yposition Zposition Zrotation Xrotation Yrotation
          JOINT LeftFootToe
          {
            OFFSET 0 0 4
            CHANNELS 6 Xposition Yposition Zposition Zrotation Xrotation Yrotation
            End Site
            {
              OFFSET 0 0 0
            }
          }
        }
      }
    }
  }
  JOINT RightUpLeg
  {
    OFFSET -8 0 0
    CHANNELS 6 Xposition Yposition Zposition Zrotation Xrotation Yrotation
    JOINT RightLeg
    {
      OFFSET 0 -45 -1
      CHANNELS 6 Xposition Yposition Zposition Zrotation Xrotation Yrotation
      JOINT RightFoot
      {
        OFFSET 0 -41 -2
        CHANNELS 6 Xposition Yposition Zposition Zrotation Xrotation Yrotation
        JOINT RightToeBase
        {
          OFFSET 0 -7.5 12.5
          CHANNELS 6 Xposition Yposition Zposition Zrotation Xrotation Yrotation
          JOINT RightFootToe
          {
            OFFSET 0 0 4
            CHANNELS 6 Xposition Yposition Zposition Zrotation Xrotation Yrotation
            End Site
            {
              OFFSET 0 0 0
            }
          }
        }
      }
    }
  }
}
MOTION
Frames:	3
Frame Time:	0.0111111
-22.1411 93.1463 45.5434 -0.246387 2.67138 36.8329 0 8 -7.10543e-15 -0.713147 -1.73104 15.5573 0 8 0 0.360406 0.474442 -6.07668 7.10543e-15 8 0 -0.822246 0.661559 -10.5551 0 8 3.55271e-15 -2.96035 -2.67276 48.1249 0 17 0 -2.13509 6.76468 -19.659 0 10.8 -3.55271e-15 -1.0356 16.5645 -47.548 5 17 0 1.16716 -0.0481619 -4.32854 6.45 2.84217e-14 0 1.16728 -0.0460613 -4.32936 6.45 0 0 6.96578 -32.0282 -48.1651 0 -32.4 -2 40.733 -60.4235 50.7641 -7.10543e-15 -25.65 2 12.9506 20.5092 67.5315 -0.5 -1.5 2.65 -42.4143 8.15658 -40.1301 -3.55271e-15 -3.8 3.7 -0.0103927 7.48028 0.0135948 0 -3 2.7 0.0137589 1.24642 0.01441 -2.84217e-14 -1.9 1.6 -2.05756 -1.31555 2.10664 0 -8.3 1.9 -63.7272 4.36495 4.00018 1.42109e-14 -4.5 0 -46.5347 0.00107216 -0.0218914 0 -3.4 -2.13163e-14 -32.1871 0.0203036 0.0164343 -0.25 -2.2 0.4 -3.38098 -1.75061 4.21422 0 -8.3 1 -79.0461 0.677604 5.20828 -3.55271e-15 -4.65 7.10543e-15 -25.4986 -0.00155299 0.000320017 -7.10543e-15 -3.3 7.10543e-15 -19.3648 0.0174535 -0.0115171 -0.5 -2.15 -0.8 -4.95617 -2.08382 8.43008 0 -7.75 -0.2 -86.9426 -0.38463 9.54803 0 -3.8 -7.10543e-15 -22.5736 0.00783803 0.00135998 0 -3.4 0 -17.5409 0.0190001 -0.00271223 -0.75 -1.75 -1.85 -9.95365 -2.56949 12.6496 0 -7.15 -1 -87.2879 -3.8413 10.9246 3.55271e-15 -3 -7.10543e-15 -25.2731 -0.00812797 0.0184631 -1.42109e-14 -2.35 -1.42109e-14 -19.226 -0.0311349 0.00754103 -5 17 3.55271e-15 0.0406469 -0.00293872 4.66322 -6.45 0 0 -0.000187149 -0.00216116 4.6632 -6.45 2.84217e-14 -3.55271e-15 -8.41087 -31.0654 -21.9283 -1.42109e-14 -32.4 -2 76.053 -49.6195 39.8609 0 -25.65 2 -36.7826 -29.2029 -36.028 0.5 -1.5 2.65 16.0709 -8.92226 7.40257 -7.10543e-15 -3.8 3.7 0.13284 18.0582 -0.363517 1.42109e-14 -3 2.7 -0.297478 65.4487 0.161419 0 -1.9 1.6 4.81544e-06 -1.93548e-05 1.16598e-05 0 -8.3 1.9 24.3572 17.494 -4.12843 -7.10543e-15 -4.5 0 40.9218 0.139605 -0.0925827 0 -3.4 -1.42109e-14 28.6501 0.0868122 -0.0211187 0.25 -2.2 0.4 4.81544e-06 -1.93548e-05 1.16598e-05 -7.10543e-15 -8.3 1 63.0555 19.9075 -15.8841 0 -4.65 2.84217e-14 35.7139 0.00790696 0.0146804 7.10543e-15 -3.3 0 25.5047 0.000742927 0.21433 0.5 -2.15 -0.8 4.81544e-06 -1.93548e-05 1.16598e-05 7.10543e-15 -7.75 -0.2 81.6705 11.8435 -19.4988 0 -3.8 -1.42109e-14 40.6068 0.439006 -0.0100983 0 -3.4 2.84217e-14 28.4572 0.139408 0.0340971 0.75 -1.75 -1.85 4.81544e-06 -1.93548e-05 1.16598e-05 0 -7.15 -1 83.3554 11.3173 -22.0101 7.10543e-15 -3 1.42109e-14 28.8485 0.0353389 0.0411089 -1.42109e-14 -2.35 0 21.4025 0.0361725 -0.000742661 8 0 -3.55271e-15 14.5811 -15.8154 -0.960477 0 -45 -1 0.0260508 21.984 -0.317768 -1.77636e-15 -41 -2 -6.7837 0.00108758 -31.3348 -4.44089e-16 -7.5 12.5 1.43871e-07 0.158538 -2.59373e-06 -4.44089e-16 0 4 4.46116 0.0203544 0.962419 -8 -1.42109e-14 -3.55271e-15 0.894857 -6.94056 -3.06059 0 -45 -1 0.0201487 10.2404 -0.44764 7.10543e-15 -41 -2 -2.53144 -5.73048 -4.89246 -7.10543e-15 -7.5 12.5 6.39533e-10 0.0395343 8.7891e-07 7.10543e-15 0 4 2.13324 5.54375 -0.0125463 
-21.9762 93.1752 45.4266 -0.151397 2.7361 36.7111 -7.10543e-15 8 -3.55271e-15 -0.799914 -1.72718 15.5021 0 8 0 0.351962 0.472625 -6.10048 0 8 0 -0.785343 0.64596 -10.5656 7.10543e-15 8 3.55271e-15 -2.96358 -2.65793 48.1032 0 17 0 -2.15604 6.72983 -19.6492 0 10.8 0 -1.10697 16.4964 -47.5116 5 17 0 1.16166 -0.0477801 -4.30685 6.45 2.84217e-14 0 1.16192 -0.0458413 -4.30411 6.45 0 1.77636e-15 6.76377 -31.9151 -48.2551 7.10543e-15 -32.4 -2 40.9429 -60.4861 50.9365 0 -25.65 2 13.1305 20.8326 67.5726 -0.5 -1.5 2.65 -42.3365 8.13575 -40.0135 0 -3.8 3.7 -0.00948645 7.48718 0.0136196 3.55271e-15 -3 2.7 0.0148966 1.30974 0.0138235 0 -1.9 1.6 -2.06604 -1.32095 2.11543 0 -8.3 1.9 -63.6043 4.40184 4.01083 -7.10543e-15 -4.5 -7.10543e-15 -46.4733 0.000601151 -0.0228079 0 -3.4 0 -32.1472 0.020915 0.0164926 -0.25 -2.2 0.4 -3.39469 -1.75772 4.23179 0 -8.3 1 -78.9881 0.664285 5.18841 3.55271e-15 -4.65 -7.10543e-15 -25.6469 -0.0015771 0.000587869 0 -3.3 -7.10543e-15 -19.4561 0.0190448 -0.0129409 -0.5 -2.15 -0.8 -4.97577 -2.09206 8.46525 -2.84217e-14 -7.75 -0.2 -86.9097 -0.372848 9.54317 0 -3.8 0 -22.7284 0.00765465 0.001731 0 -3.4 -7.10543e-15 -17.6391 0.018854 -0.0024465 -0.75 -1.75 -1.85 -9.9931 -2.57927 12.7025 0 -7.15 -1 -87.3134 -3.81799 10.9686 -3.55271e-15 -3 0 -25.3786 -0.00712061 0.0180084 0 -2.35 0 -19.2911 -0.0320542 0.00750721 -5 17 3.55271e-15 0.0402222 -0.00293873 4.66209 -6.45 2.84217e-14 0 -0.000170536 -0.00218216 4.66208 -6.45 0 0 -8.45643 -31.0393 -21.7916 0 -32.4 -2 75.9946 -49.6892 39.9418 -7.10543e-15 -25.65 2 -36.8346 -29.2175 -35.9717 0.5 -1.5 2.65 16.058 -8.85096 7.37225 -7.10543e-15 -3.8 3.7 0.133168 18.064 -0.363599 7.10543e-15 -3 2.7 -0.297002 65.4141 0.161157 -2.13163e-14 -1.9 1.6 4.81544e-06 -1.93548e-05 1.16598e-05 1.42109e-14 -8.3 1.9 24.3808 17.5123 -4.13698 0 -4.5 0 40.9128 0.137782 -0.0925661 0 -3.4 1.42109e-14 28.6445 0.0888757 -0.0209254 0.25 -2.2 0.4 4.81544e-06 -1.93548e-05 1.16598e-05 -2.13163e-14 -8.3 1 63.0637 19.9092 -15.8839 0 -4.65 -1.42109e-14 35.6993 0.00790696 0.0152109 0 -3.3 -1.42109e-14 25.496 0.000728268 0.212956 0.5 -2.15 -0.8 4.81544e-06 -1.93548e-05 1.16598e-05 -7.10543e-15 -7.75 -0.2 81.6819 11.8313 -19.4927 -7.10543e-15 -3.8 -1.42109e-14 40.6685 0.439237 -0.010253 0 -3.4 0 28.4949 0.140385 0.0351184 0.75 -1.75 -1.85 4.81544e-06 -1.93548e-05 1.16598e-05 0 -7.15 -1 83.3594 11.3155 -22.0124 0 -3 0 28.8928 0.0353527 0.0402791 -1.42109e-14 -2.35 0 21.4291 0.0361855 -0.000742661 8 0 3.55271e-15 14.9349 -15.4018 -1.13313 -1.77636e-15 -45 -1 0.0527235 21.1123 -0.53779 -1.77636e-15 -41 -2 -6.78627 0.143148 -30.6545 4.44089e-16 -7.5 12.5 1.43918e-07 0.159592 -2.59373e-06 -4.44089e-16 -3.55271e-15 4 4.84194 0.0289644 1.05158 -8 0 -7.10543e-15 0.667028 -6.91435 -2.95031 7.10543e-15 -45 -1 0.0188856 10.1784 -0.422276 0 -41 -2 -2.4044 -5.68015 -4.92347 0 -7.5 12.5 6.60011e-10 0.0381994 8.7891e-07 0 -6.93889e-18 4 1.97982 5.48583 -0.00613112 
-21.8002 93.2055 45.3027 -0.0530674 2.80283 36.569 0 8 -3.55271e-15 -0.890326 -1.72436 15.4439 -7.10543e-15 8 0 0.347343 0.471184 -6.12546 0 8 3.55271e-15 -0.755742 0.633544 -10.5673 7.10543e-15 8 -3.55271e-15 -2.97354 -2.64803 48.0798 0 17 0 -2.18004 6.69687 -19.6338 1.42109e-14 10.8 3.55271e-15 -1.18575 16.4349 -47.4608 5 17 -3.55271e-15 1.1564 -0.0473922 -4.28257 6.45 2.84217e-14 1.77636e-15 1.15656 -0.0456273 -4.28186 6.45 -2.84217e-14 3.55271e-15 6.61091 -31.8049 -48.307 7.10543e-15 -32.4 -2 41.1875 -60.5826 51.1559 0 -25.65 2 13.3252 21.1423 67.5698 -0.5 -1.5 2.65 -42.2554 8.12473 -39.9013 3.55271e-15 -3.8 3.7 -0.00849727 7.49239 0.0135305 0 -3 2.7 0.0158514 1.36824 0.0132772 0 -1.9 1.6 -2.0683 -1.32232 2.11771 0 -8.3 1.9 -63.451 4.43644 4.01708 -7.10543e-15 -4.5 7.10543e-15 -46.3994 0.000145132 -0.0237091 -7.10543e-15 -3.4 0 -32.0991 0.0215132 0.0165658 -0.25 -2.2 0.4 -3.39835 -1.75951 4.23637 0 -8.3 1 -78.8901 0.646453 5.15771 7.10543e-15 -4.65 0 -25.7734 -0.00162417 0.000845078 7.10543e-15 -3.3 7.10543e-15 -19.5338 0.0206563 -0.0143748 -0.5 -2.15 -0.8 -4.98105 -2.09412 8.47445 0 -7.75 -0.2 -86.8577 -0.359692 9.52906 0 -3.8 0 -22.8178 0.00743041 0.0021052 7.10543e-15 -3.4 -7.10543e-15 -17.6958 0.0186752 -0.00218162 -0.75 -1.75 -1.85 -10.0036 -2.58163 12.7162 0 -7.15 -1 -87.316 -3.81715 10.9751 0 -3 0 -25.4063 -0.00608439 0.0174698 0 -2.35 0 -19.3082 -0.0328418 0.00742205 -5 17 -3.55271e-15 0.0397759 -0.00293872 4.66541 -6.45 -2.84217e-14 3.55271e-15 -0.000154077 -0.00220317 4.6654 -6.45 2.84217e-14 3.55271e-15 -8.50227 -31.0395 -21.661 0 -32.4 -2 75.9309 -49.7414 40.0166 7.10543e-15 -25.65 2 -36.8809 -29.231 -35.9374 0.5 -1.5 2.65 16.0481 -8.79081 7.36006 -7.10543e-15 -3.8 3.7 0.133457 18.0637 -0.363666 7.10543e-15 -3 2.7 -0.2965 65.377 0.160873 0 -1.9 1.6 4.81544e-06 -1.93548e-05 1.16598e-05 2.13163e-14 -8.3 1.9 24.3949 17.5232 -4.14223 0 -4.5 0 40.9469 0.135902 -0.0924939 0 -3.4 0 28.6655 0.0909354 -0.0207236 0.25 -2.2 0.4 4.81544e-06 -1.93548e-05 1.16598e-05 0 -8.3 1 63.0657 19.9118 -15.8835 -3.55271e-15 -4.65 2.84217e-14 35.6929 0.00790696 0.015731 0 -3.3 0 25.4922 0.000713439 0.211573 0.5 -2.15 -0.8 4.81544e-06 -1.93548e-05 1.16598e-05 0 -7.75 -0.2 81.6898 11.8222 -19.4874 0 -3.8 0 40.6964 0.439463 -0.0104039 0 -3.4 0 28.512 0.14136 0.0361379 0.75 -1.75 -1.85 4.81544e-06 -1.93548e-05 1.16598e-05 -1.42109e-14 -7.15 -1 83.3622 11.3144 -22.0154 0 -3 0 28.9271 0.0353654 0.0394001 1.42109e-14 -2.35 -1.42109e-14 21.4498 0.0361975 -0.000742661 8 1.42109e-14 0 15.2538 -14.9768 -1.3066 7.10543e-15 -45 -1 0.0777813 20.2292 -0.765595 -1.77636e-15 -41 -2 -6.74567 0.249602 -29.9456 8.88178e-16 -7.5 12.5 1.43966e-07 0.160639 -2.59373e-06 0 1.77636e-15 4 5.16557 0.0376859 1.12202 -8 -1.42109e-14 0 0.431182 -6.88599 -2.83323 -7.10543e-15 -45 -1 0.0177039 10.1099 -0.400381 0 -41 -2 -2.27172 -5.62622 -4.95055 1.42109e-14 -7.5 12.5 6.80675e-10 0.0368523 8.7891e-07 0 3.46945e-18 4 1.82123 5.42276 -0.003198 
